<?xml version="1.0" standalone="no"?>
<!DOCTYPE svg PUBLIC "-//W3C//DTD SVG 20010904//EN"
 "http://www.w3.org/TR/2001/REC-SVG-20010904/DTD/svg10.dtd">
<svg version="1.0" xmlns="http://www.w3.org/2000/svg"
 width="360.000000pt" height="360.000000pt" viewBox="0 0 360.000000 360.000000"
 preserveAspectRatio="xMidYMid meet">
<metadata>
Created by potrace 1.11, written by Peter Selinger 2001-2013
</metadata>
<g transform="translate(0.000000,360.000000) scale(0.100000,-0.100000)"
fill="#000000" stroke="none">
<path d="M0 1800 l0 -1800 1800 0 1800 0 0 1800 0 1800 -1800 0 -1800 0 0
-1800z m2346 775 c16 -24 11 -62 -90 -768 -59 -408 -109 -757 -112 -775 l-6
-32 -374 0 c-361 0 -375 1 -394 20 -11 11 -20 26 -20 33 0 7 47 343 105 747
58 404 105 738 105 743 0 4 11 19 25 32 l24 25 360 0 361 0 16 -25z m-1020
-400 c16 -24 12 -54 -65 -593 -45 -312 -81 -570 -81 -574 0 -5 -169 -8 -375
-8 -362 0 -376 1 -395 20 -11 11 -20 26 -20 33 0 18 148 1057 155 1084 3 12
15 32 27 43 21 19 34 20 380 20 l358 0 16 -25z m1870 -300 c16 -24 14 -46 -40
-418 -31 -215 -59 -407 -63 -424 l-5 -33 -374 0 c-361 0 -375 1 -394 20 -11
11 -20 26 -20 33 0 7 25 186 55 397 30 211 55 387 55 392 0 5 11 20 25 33 l24
25 360 0 361 0 16 -25z"/>
</g>
</svg>
